<svg width="46" height="45" viewBox="0 0 46 45" fill="none" xmlns="http://www.w3.org/2000/svg">
<ellipse cx="23.1725" cy="22.4974" rx="22.6667" ry="22.3333" fill="#212121"/>
<path d="M21.424 13.5C20.3412 13.5006 19.2737 13.7649 18.3072 14.2717C17.3407 14.7785 16.5022 15.5137 15.8591 16.4181C15.2159 17.3225 14.7862 18.371 14.6042 19.4792C14.4223 20.5874 14.4934 21.7244 14.8116 22.799C15.1299 23.8735 15.6865 24.8555 16.4368 25.6661C17.187 26.4767 18.11 27.0932 19.1315 27.4661C20.1529 27.8391 21.2444 27.958 22.3182 27.8134C23.392 27.6688 24.4181 27.2646 25.3141 26.6334L29.5918 31.0711C29.7106 31.2035 29.8539 31.3097 30.0131 31.3833C30.1723 31.457 30.3442 31.4966 30.5184 31.4998C30.6927 31.503 30.8658 31.4697 31.0274 31.4019C31.189 31.3342 31.3358 31.2333 31.4591 31.1053C31.5823 30.9774 31.6795 30.825 31.7447 30.6572C31.81 30.4894 31.8421 30.3097 31.839 30.1287C31.8359 29.9478 31.7978 29.7694 31.7268 29.6041C31.6559 29.4388 31.5536 29.2901 31.4261 29.1667L27.1519 24.7254C27.859 23.6449 28.2691 22.3847 28.338 21.0803C28.4069 19.7759 28.1321 18.4766 27.5431 17.3223C26.9541 16.1679 26.0731 15.2021 24.995 14.5286C23.9168 13.8551 22.6823 13.4995 21.424 13.5ZM17.0979 20.6866C17.0979 19.4953 17.5537 18.3529 18.365 17.5105C19.1763 16.6682 20.2767 16.195 21.424 16.195C22.5714 16.195 23.6718 16.6682 24.4831 17.5105C25.2944 18.3529 25.7502 19.4953 25.7502 20.6866C25.7502 21.8778 25.2944 23.0203 24.4831 23.8626C23.6718 24.7049 22.5714 25.1782 21.424 25.1782C20.2767 25.1782 19.1763 24.7049 18.365 23.8626C17.5537 23.0203 17.0979 21.8778 17.0979 20.6866Z" fill="white"/>
</svg>
