<svg width="17" height="23" viewBox="0 0 17 23" fill="none" xmlns="http://www.w3.org/2000/svg">
<path d="M8.17332 0.5C9.09989 0.5 9.98851 0.868079 10.6437 1.52326C11.2989 2.17845 11.667 3.06707 11.667 3.99364V10.9809C11.667 11.9075 11.2989 12.7961 10.6437 13.4513C9.98851 14.1065 9.09989 14.4746 8.17332 14.4746C7.24675 14.4746 6.35812 14.1065 5.70294 13.4513C5.04775 12.7961 4.67968 11.9075 4.67968 10.9809V3.99364C4.67968 3.06707 5.04775 2.17845 5.70294 1.52326C6.35812 0.868079 7.24675 0.5 8.17332 0.5ZM16.3252 10.9809C16.3252 15.0918 13.2857 18.4806 9.33787 19.0512V22.6264H7.00877V19.0512C3.06095 18.4806 0.0214844 15.0918 0.0214844 10.9809H2.35058C2.35058 12.5252 2.96405 14.0063 4.05602 15.0982C5.148 16.1902 6.62903 16.8037 8.17332 16.8037C9.71761 16.8037 11.1986 16.1902 12.2906 15.0982C13.3826 14.0063 13.9961 12.5252 13.9961 10.9809H16.3252Z" fill="#A3A3A3"/>
</svg>
